<svg xmlns="http://www.w3.org/2000/svg" version="1.1" xmlns:xlink="http://www.w3.org/1999/xlink" xmlns:svgjs="http://svgjs.dev/svgjs" width="512" height="512"><svg xmlns="http://www.w3.org/2000/svg" viewBox="0 0 512 512">
  <path d="M159.41998,251.09998c-2.69,1.79004-5.85999,3.38-9.51996,4.75,3.65997,1.29004,6.82996,2.88,9.51996,4.78003,4.36005,3.08997,7.63,7.44995,9.81,13.07996,2.17999,5.64001,3.27002,13.18005,3.27002,22.62v147.15002c0,14.16998,3.34998,25.07001,10.08002,32.70001,6.71997,7.63,17.16998,11.44,31.33997,11.44h15.79999v23.44h-17.43994c-22.16003,0-38.88-5.45001-50.14001-16.35004-11.26001-10.89996-16.89001-27.25-16.89001-49.04999v-149.87c0-9.81-2.17999-16.97998-6.53998-21.52997-4.36005-4.54004-10.36005-6.81-17.99005-6.81h-19.06995v-23.44h19.06995c7.63,0,13.63-2.18005,17.99005-6.54004,4.35999-4.35999,6.53998-11.45001,6.53998-21.26001V66.33997c0-22.15997,5.63-38.59998,16.89001-49.32001C173.40002,6.29999,190.12.94,212.28003.94h17.43994v23.44h-15.79999c-14.16998,0-24.62,3.81-31.33997,11.44-6.73004,7.63-10.08002,18.52997-10.08002,32.69995v147.15002c0,9.45001-1.09003,16.98999-3.27002,22.62s-5.44995,9.90002-9.81,12.81Z"></path>
  <path d="M318.68799,237.92773c-15.12012,0-29.6582-2.02539-43.60547-6.0752-13.95117-4.0498-25.15625-9.31543-33.61523-15.79492l14.85059-32.93994c7.91797,5.7627,17.45703,10.48779,28.62012,14.1748,11.1582,3.69141,22.41016,5.53516,33.75,5.53516,8.63965,0,15.61328-.89893,20.9248-2.7002,5.30664-1.79736,9.22168-4.18506,11.74512-7.15479,2.51855-2.97021,3.78027-6.43359,3.78027-10.39502,0-5.03711-1.9834-9.04492-5.94043-12.01514-3.96191-2.97021-9.22656-5.3999-15.79492-7.29004-6.57324-1.89014-13.72754-3.68701-21.46484-5.3999-7.74121-1.7085-15.52539-3.78027-23.35547-6.20996-7.83008-2.43018-15.03125-5.66992-21.59961-9.72021-6.57324-4.0498-11.79199-9.35693-15.66016-15.92969-3.87305-6.56885-5.80469-14.80371-5.80469-24.70508,0-10.80029,2.87695-20.65527,8.63965-29.56494,5.75879-8.91016,14.5332-16.01855,26.3252-21.33008,11.78711-5.30713,26.59473-7.96533,44.41504-7.96533,11.87988,0,23.625,1.44287,35.23438,4.32031,11.61035,2.88135,21.73535,7.02002,30.375,12.41992l-13.76953,32.93994c-8.46289-4.85986-17.19141-8.50488-26.19043-10.93506-9.00293-2.42969-17.64258-3.64502-25.91992-3.64502-8.63965,0-15.57129.94531-20.79004,2.83496-5.22266,1.89014-9.04492,4.45508-11.47461,7.69531-2.42969,3.23975-3.64551,6.84277-3.64551,10.7998,0,5.0415,1.97949,9.09131,5.94043,12.1499,3.95703,3.06299,9.17969,5.44678,15.66016,7.15527,6.47949,1.71289,13.67676,3.42139,21.59961,5.12988,7.91895,1.71289,15.74902,3.82617,23.49023,6.34521,7.7373,2.52246,14.84961,5.71631,21.33008,9.58496,6.47949,3.87256,11.74512,9.09131,15.79492,15.65967,4.0498,6.57275,6.0752,14.71533,6.0752,24.43506,0,10.62305-2.92773,20.34277-8.77539,29.16016-5.85156,8.82178-14.71484,15.93018-26.59473,21.32959-11.87988,5.40039-26.73047,8.10059-44.5498,8.10059Z"></path>
  <path d="M332.05273,469.55249c-14.58008,0-28.12695-2.3877-40.63574-7.15527-12.5127-4.76758-23.35449-11.56348-32.53418-20.38477-9.18066-8.81738-16.33496-19.16992-21.46582-31.0498-5.12988-11.88086-7.69434-24.92871-7.69434-39.15039,0-14.2168,2.56445-27.26953,7.69434-39.15039,5.13086-11.87988,12.32715-22.22852,21.60059-31.0498,9.26855-8.81738,20.15723-15.61328,32.66992-20.38477,12.50879-4.76758,26.05469-7.15527,40.63477-7.15527,16.37695,0,31.22754,2.83496,44.5498,8.50488,13.31934,5.66992,24.47754,13.99805,33.48047,24.97559l-28.35059,25.91992c-6.30273-7.37891-13.45703-12.95996-21.46484-16.74023-8.01074-3.78027-16.69727-5.66992-26.05469-5.66992-8.82129,0-16.92188,1.48535-24.2998,4.45508-7.38281,2.96973-13.77051,7.15527-19.16992,12.55469-5.40039,5.40039-9.58496,11.79199-12.55566,19.16992-2.96973,7.38281-4.45508,15.57129-4.45508,24.57031,0,9.00293,1.48535,17.19141,4.45508,24.57031,2.9707,7.38281,7.15527,13.76953,12.55566,19.16992,5.39941,5.39941,11.78711,9.58496,19.16992,12.55469,7.37793,2.96973,15.47852,4.45508,24.2998,4.45508,9.35742,0,18.04395-1.93262,26.05469-5.80469,8.00781-3.86914,15.16211-9.49219,21.46484-16.875l28.35059,25.91992c-9.00293,10.98145-20.16113,19.35156-33.48047,25.10938-13.32227,5.75879-28.26074,8.64062-44.81934,8.64062Z"></path>
  <style>
    path { fill: #221f1f; }
    @media (prefers-color-scheme: dark) {
      path { fill: #FFF; }
    }
  </style>
</svg><style>@media (prefers-color-scheme: light) { :root { filter: contrast(1) brightness(0.1); } }
@media (prefers-color-scheme: dark) { :root { filter: none; } }
</style></svg>